<?xml version="1.0" encoding="utf-8"?>
<svg width="128" height="43" viewBox="0 0 128 43" fill="none" xmlns="http://www.w3.org/2000/svg">
  <path d="M 6.938 34.688 C 6.063 34.656 5.211 34.414 4.383 33.961 C 3.57 33.523 2.852 32.891 2.227 32.063 C 1.617 31.219 1.141 30.188 0.797 28.969 C 0.453 27.75 0.313 26.344 0.375 24.75 C 0.438 23.156 0.719 21.742 1.219 20.508 C 1.734 19.273 2.367 18.25 3.117 17.438 C 3.867 16.609 4.688 16 5.578 15.609 C 6.484 15.219 7.375 15.07 8.25 15.164 C 8.781 15.227 9.25 15.375 9.656 15.609 C 10.063 15.844 10.414 16.133 10.711 16.477 C 11.008 16.805 11.258 17.164 11.461 17.555 C 11.664 17.93 11.828 18.297 11.953 18.656 C 12.047 18.75 12.148 18.797 12.258 18.797 C 12.555 18.813 12.82 18.594 13.055 18.141 C 13.305 17.672 13.516 16.906 13.688 15.844 L 14.344 15.914 C 14.203 16.445 14.047 17.063 13.875 17.766 C 13.719 18.453 13.57 19.164 13.43 19.898 C 13.305 20.633 13.195 21.359 13.102 22.078 C 13.023 22.797 13 23.445 13.031 24.023 C 12.797 23.93 12.578 23.867 12.375 23.836 C 12.172 23.789 11.984 23.758 11.813 23.742 C 11.625 23.727 11.453 23.727 11.297 23.742 C 11.328 22.773 11.297 21.844 11.203 20.953 C 11.125 20.063 10.969 19.281 10.734 18.609 C 10.5 17.922 10.188 17.367 9.797 16.945 C 9.422 16.523 8.953 16.289 8.391 16.242 C 7.891 16.195 7.352 16.305 6.773 16.57 C 6.195 16.82 5.648 17.281 5.133 17.953 C 4.617 18.609 4.172 19.492 3.797 20.602 C 3.422 21.711 3.188 23.094 3.094 24.75 C 3.047 25.625 3.078 26.547 3.188 27.516 C 3.297 28.484 3.516 29.383 3.844 30.211 C 4.172 31.023 4.617 31.703 5.18 32.25 C 5.742 32.781 6.453 33.039 7.313 33.023 C 7.969 32.977 8.578 32.805 9.141 32.508 C 9.625 32.242 10.102 31.844 10.57 31.313 C 11.039 30.781 11.375 30.016 11.578 29.016 L 12.352 29.484 C 12.227 29.891 12.039 30.398 11.789 31.008 C 11.539 31.602 11.195 32.18 10.758 32.742 C 10.336 33.305 9.805 33.773 9.164 34.148 C 8.539 34.539 7.797 34.719 6.938 34.688 Z M 25.992 32.133 C 25.945 32.336 25.867 32.563 25.758 32.813 C 25.648 33.047 25.492 33.258 25.289 33.445 C 25.086 33.648 24.836 33.797 24.539 33.891 C 24.258 34 23.922 34.008 23.531 33.914 C 23.141 33.82 22.828 33.602 22.594 33.258 C 22.375 32.914 22.219 32.477 22.125 31.945 C 21.984 32.164 21.805 32.398 21.586 32.648 C 21.383 32.883 21.133 33.094 20.836 33.281 C 20.555 33.484 20.227 33.641 19.852 33.75 C 19.492 33.875 19.094 33.922 18.656 33.891 C 18.063 33.844 17.531 33.68 17.063 33.398 C 16.609 33.133 16.227 32.789 15.914 32.367 C 15.602 31.93 15.367 31.438 15.211 30.891 C 15.07 30.344 15.031 29.773 15.094 29.18 C 15.156 28.586 15.313 28.078 15.563 27.656 C 15.828 27.234 16.156 26.898 16.547 26.648 C 16.938 26.383 17.383 26.203 17.883 26.109 C 18.383 26.016 18.898 25.992 19.43 26.039 C 20.133 26.117 20.719 26.328 21.188 26.672 C 21.656 27 22.016 27.367 22.266 27.773 C 22.344 27.055 22.367 26.289 22.336 25.477 C 22.305 24.648 22.18 23.898 21.961 23.227 C 21.742 22.539 21.406 21.977 20.953 21.539 C 20.5 21.086 19.883 20.867 19.102 20.883 C 18.555 20.883 18.102 20.984 17.742 21.188 C 17.398 21.375 17.117 21.602 16.898 21.867 C 16.695 22.133 16.555 22.406 16.477 22.688 C 16.398 22.953 16.359 23.164 16.359 23.32 C 16.359 23.477 16.406 23.656 16.5 23.859 C 16.594 24.047 16.727 24.227 16.898 24.398 C 17.07 24.555 17.273 24.68 17.508 24.773 C 17.742 24.867 18.008 24.891 18.305 24.844 C 18.508 24.813 18.688 24.742 18.844 24.633 C 19 24.523 19.125 24.398 19.219 24.258 C 19.313 24.117 19.375 23.969 19.406 23.813 C 19.453 23.656 19.477 23.508 19.477 23.367 C 19.477 23.211 19.43 23.078 19.336 22.969 C 19.242 22.844 19.133 22.75 19.008 22.688 C 18.883 22.625 18.742 22.609 18.586 22.641 C 18.43 22.656 18.289 22.727 18.164 22.852 C 18.305 22.836 18.445 22.867 18.586 22.945 C 18.727 23.008 18.797 23.148 18.797 23.367 C 18.797 23.539 18.727 23.672 18.586 23.766 C 18.445 23.844 18.289 23.875 18.117 23.859 C 17.945 23.844 17.789 23.773 17.648 23.648 C 17.508 23.508 17.438 23.297 17.438 23.016 C 17.438 22.75 17.547 22.523 17.766 22.336 C 18 22.148 18.266 22.055 18.563 22.055 C 18.922 22.055 19.25 22.195 19.547 22.477 C 19.859 22.758 20.016 23.148 20.016 23.648 C 20.016 23.82 19.969 24.008 19.875 24.211 C 19.797 24.398 19.672 24.578 19.5 24.75 C 19.328 24.922 19.102 25.07 18.82 25.195 C 18.539 25.305 18.211 25.359 17.836 25.359 C 17.461 25.359 17.125 25.289 16.828 25.148 C 16.531 24.992 16.281 24.805 16.078 24.586 C 15.875 24.352 15.719 24.102 15.609 23.836 C 15.516 23.555 15.469 23.289 15.469 23.039 C 15.469 22.789 15.547 22.477 15.703 22.102 C 15.859 21.711 16.102 21.344 16.43 21 C 16.773 20.656 17.195 20.359 17.695 20.109 C 18.211 19.859 18.82 19.734 19.523 19.734 C 21.414 19.734 22.719 20.398 23.438 21.727 C 24.156 23.039 24.273 25 23.789 27.609 C 23.602 28.656 23.5 29.508 23.484 30.164 C 23.469 30.82 23.508 31.344 23.602 31.734 C 23.695 32.125 23.828 32.398 24 32.555 C 24.188 32.711 24.383 32.805 24.586 32.836 C 24.758 32.867 24.922 32.852 25.078 32.789 C 25.203 32.758 25.32 32.688 25.43 32.578 C 25.555 32.453 25.641 32.266 25.688 32.016 L 25.992 32.133 Z M 22.031 30.938 C 22.016 30.375 22.039 29.781 22.102 29.156 C 21.977 28.672 21.719 28.227 21.328 27.82 C 20.953 27.398 20.523 27.148 20.039 27.07 C 19.68 27.008 19.305 27.016 18.914 27.094 C 18.539 27.156 18.203 27.297 17.906 27.516 C 17.609 27.719 17.375 28.008 17.203 28.383 C 17.031 28.758 16.969 29.219 17.016 29.766 C 17.094 30.609 17.328 31.25 17.719 31.688 C 18.125 32.125 18.719 32.32 19.5 32.273 C 20.094 32.242 20.594 32.094 21 31.828 C 21.422 31.547 21.766 31.25 22.031 30.938 Z M 31.57 32.227 C 31.93 32.227 32.266 32.102 32.578 31.852 C 32.891 31.602 33.109 31.18 33.234 30.586 L 33.727 30.773 C 33.68 31.148 33.531 31.531 33.281 31.922 C 33.031 32.297 32.711 32.617 32.32 32.883 C 31.93 33.148 31.484 33.32 30.984 33.398 C 30.5 33.477 30 33.398 29.484 33.164 C 28.922 32.898 28.516 32.555 28.266 32.133 C 28.016 31.711 27.859 31.227 27.797 30.68 C 27.734 30.117 27.727 29.516 27.773 28.875 C 27.82 28.219 27.844 27.539 27.844 26.836 C 27.844 26.43 27.836 25.953 27.82 25.406 C 27.82 24.844 27.805 24.25 27.773 23.625 C 27.758 23 27.727 22.359 27.68 21.703 C 27.633 21.031 27.586 20.375 27.539 19.734 C 27.008 19.797 26.5 19.875 26.016 19.969 C 25.547 20.047 25.148 20.148 24.82 20.273 C 24.805 20.133 24.805 20.023 24.82 19.945 C 24.82 19.867 24.828 19.797 24.844 19.734 C 24.844 19.656 24.844 19.578 24.844 19.5 C 24.844 19.406 24.828 19.281 24.797 19.125 C 25.172 19.094 25.586 19.063 26.039 19.031 C 26.508 19 26.984 18.969 27.469 18.938 C 27.453 18.719 27.579 22.565 27.615 22.365 C 27.793 21.373 27.383 17.875 27.352 17.672 C 27.273 16.938 27.125 16.352 26.906 15.914 C 26.703 15.477 26.477 15.141 26.227 14.906 C 25.977 14.672 25.742 14.516 25.523 14.438 C 25.305 14.344 25.141 14.281 25.031 14.25 L 25.102 13.805 C 25.398 13.93 25.766 14.016 26.203 14.063 C 26.641 14.094 27.094 14.094 27.563 14.063 C 28.047 14.016 28.516 13.938 28.969 13.828 C 29.438 13.719 29.844 13.578 30.188 13.406 C 30.031 13.844 29.891 14.539 29.766 15.492 C 29.656 16.445 29.563 17.555 29.484 18.82 C 30.297 18.773 30.883 18.711 31.242 18.633 C 31.164 18.727 31.125 18.883 31.125 19.102 C 31.125 19.305 31.148 19.492 31.195 19.664 C 30.93 19.633 30.648 19.617 30.352 19.617 C 30.055 19.602 29.75 19.594 29.438 19.594 C 29.391 20.5 29.359 21.445 29.344 22.43 C 29.328 23.414 29.336 24.391 29.367 25.359 C 29.414 26.313 29.477 27.25 29.555 28.172 C 29.648 29.078 29.766 29.914 29.906 30.68 C 30.031 31.227 30.25 31.617 30.563 31.852 C 30.875 32.086 31.211 32.211 31.57 32.227 Z M 53.836 17.813 C 53.508 18.031 53.188 18.273 52.875 18.539 C 52.563 18.805 52.289 19.148 52.055 19.57 C 51.82 19.992 51.641 20.523 51.516 21.164 C 51.391 21.789 51.359 22.586 51.422 23.555 C 51.453 24.195 51.484 24.891 51.516 25.641 C 51.563 26.375 51.57 27.117 51.539 27.867 C 51.508 28.617 51.422 29.344 51.281 30.047 C 51.141 30.734 50.906 31.352 50.578 31.898 C 50.25 32.445 49.813 32.891 49.266 33.234 C 48.719 33.578 48.031 33.766 47.203 33.797 C 46.594 33.828 46.055 33.742 45.586 33.539 C 45.133 33.336 44.734 33.063 44.391 32.719 C 44.063 32.359 43.789 31.953 43.57 31.5 C 43.352 31.031 43.172 30.547 43.031 30.047 C 42.797 30.688 42.516 31.281 42.188 31.828 C 41.875 32.375 41.461 32.813 40.945 33.141 C 40.445 33.484 39.836 33.68 39.117 33.727 C 38.414 33.789 37.563 33.648 36.563 33.305 C 35.828 33.055 35.25 32.695 34.828 32.227 C 34.406 31.742 34.094 31.203 33.891 30.609 C 33.688 30 33.57 29.367 33.539 28.711 C 33.508 28.039 33.516 27.398 33.563 26.789 C 33.609 26.164 33.68 25.594 33.773 25.078 C 33.867 24.563 33.938 24.148 33.984 23.836 C 34.141 22.836 34.266 21.891 34.359 21 C 34.469 20.094 34.484 19.289 34.406 18.586 C 34.328 17.867 34.125 17.273 33.797 16.805 C 33.484 16.32 32.984 16 32.297 15.844 L 32.414 15.375 C 32.711 15.422 33.063 15.477 33.469 15.539 C 33.875 15.602 34.297 15.656 34.734 15.703 C 35.172 15.734 35.602 15.75 36.023 15.75 C 36.461 15.734 36.852 15.688 37.195 15.609 C 37.117 16.219 37.008 16.977 36.867 17.883 C 36.742 18.773 36.617 19.727 36.492 20.742 C 36.367 21.758 36.25 22.797 36.141 23.859 C 36.047 24.906 35.992 25.891 35.977 26.813 C 35.93 28.672 36.141 30.031 36.609 30.891 C 37.094 31.75 37.938 32.172 39.141 32.156 C 39.75 32.141 40.242 31.875 40.617 31.359 C 40.992 30.844 41.281 30.203 41.484 29.438 C 41.703 28.672 41.852 27.859 41.93 27 C 42.008 26.125 42.063 25.328 42.094 24.609 C 42.109 23.891 42.109 23.195 42.094 22.523 C 42.078 21.836 42.031 21.203 41.953 20.625 C 41.875 20.047 41.766 19.531 41.625 19.078 C 41.5 18.609 41.344 18.234 41.156 17.953 C 41.594 17.938 41.969 17.945 42.281 17.977 C 42.594 18.008 42.883 18.047 43.148 18.094 C 43.43 18.125 43.719 18.148 44.016 18.164 C 44.313 18.18 44.664 18.148 45.07 18.07 C 44.898 18.555 44.742 19.055 44.602 19.57 C 44.461 20.086 44.336 20.648 44.227 21.258 C 44.133 21.867 44.055 22.547 43.992 23.297 C 43.945 24.031 43.922 24.867 43.922 25.805 C 43.938 26.742 43.984 27.594 44.063 28.359 C 44.156 29.125 44.313 29.773 44.531 30.305 C 44.766 30.82 45.078 31.203 45.469 31.453 C 45.875 31.688 46.398 31.742 47.039 31.617 C 47.68 31.477 48.18 31.156 48.539 30.656 C 48.898 30.156 49.156 29.539 49.313 28.805 C 49.484 28.07 49.578 27.25 49.594 26.344 C 49.625 25.422 49.625 24.484 49.594 23.531 C 49.563 22.563 49.508 21.742 49.43 21.07 C 49.352 20.383 49.227 19.82 49.055 19.383 C 48.898 18.945 48.695 18.617 48.445 18.398 C 48.195 18.164 47.891 18.016 47.531 17.953 L 47.602 17.438 C 48.555 17.594 49.539 17.648 50.555 17.602 C 51.57 17.539 52.633 17.359 53.742 17.063 L 53.836 17.813 Z M 53.836 32.883 C 54.195 32.758 54.492 32.594 54.727 32.391 C 54.961 32.188 55.141 31.984 55.266 31.781 C 55.422 31.547 55.523 31.305 55.57 31.055 C 55.914 29.461 56.086 27.945 56.086 26.508 C 56.086 25.055 55.977 23.813 55.758 22.781 C 55.695 22.453 55.578 22.148 55.406 21.867 C 55.266 21.633 55.07 21.414 54.82 21.211 C 54.57 20.992 54.25 20.852 53.859 20.789 L 53.836 20.414 C 54.148 20.445 54.438 20.469 54.703 20.484 C 54.984 20.484 55.227 20.484 55.43 20.484 L 56.086 20.484 C 56.273 20.5 56.461 20.508 56.648 20.508 C 56.82 20.523 56.992 20.531 57.164 20.531 C 57.352 20.531 57.531 20.547 57.703 20.578 C 57.656 21.141 57.617 21.719 57.586 22.313 C 57.555 22.891 57.531 23.414 57.516 23.883 C 57.484 24.43 57.469 24.961 57.469 25.477 C 57.438 26.055 57.414 26.688 57.398 27.375 C 57.383 28.047 57.391 28.688 57.422 29.297 C 57.453 29.906 57.508 30.445 57.586 30.914 C 57.664 31.367 57.789 31.664 57.961 31.805 C 58.055 31.867 58.18 31.93 58.336 31.992 C 58.461 32.055 58.625 32.117 58.828 32.18 C 59.047 32.242 59.313 32.305 59.625 32.367 L 59.648 32.766 C 59.336 32.75 59.031 32.75 58.734 32.766 C 58.453 32.766 58.203 32.766 57.984 32.766 C 57.719 32.781 57.469 32.789 57.234 32.789 C 56.906 32.805 56.555 32.836 56.18 32.883 C 55.867 32.914 55.516 32.953 55.125 33 C 54.734 33.047 54.359 33.102 54 33.164 L 53.836 32.883 Z M 56.25 18.844 C 55.766 18.875 55.391 18.766 55.125 18.516 C 54.859 18.25 54.711 17.953 54.68 17.625 C 54.648 17.297 54.734 16.992 54.938 16.711 C 55.156 16.414 55.5 16.234 55.969 16.172 C 56.453 16.109 56.836 16.211 57.117 16.477 C 57.414 16.742 57.586 17.047 57.633 17.391 C 57.68 17.719 57.594 18.039 57.375 18.352 C 57.156 18.648 56.781 18.813 56.25 18.844 Z M 71.344 38.93 C 70.797 38.93 70.258 38.844 69.727 38.672 C 69.195 38.5 68.734 38.211 68.344 37.805 C 67.953 37.414 67.664 36.883 67.477 36.211 C 67.289 35.555 67.266 34.734 67.406 33.75 C 67.516 33 67.602 32.266 67.664 31.547 C 67.742 30.813 67.766 30.141 67.734 29.531 C 67.703 28.906 67.594 28.359 67.406 27.891 C 67.219 27.406 66.914 27.031 66.492 26.766 C 66.102 26.5 65.594 26.344 64.969 26.297 C 64.344 26.25 63.586 26.359 62.695 26.625 C 62.727 27.297 62.766 27.93 62.813 28.523 C 62.875 29.117 62.945 29.648 63.023 30.117 C 63.07 30.586 63.156 30.992 63.281 31.336 C 63.375 31.633 63.508 31.898 63.68 32.133 C 63.852 32.367 64.07 32.453 64.336 32.391 L 64.172 32.977 C 63.859 32.867 63.5 32.789 63.094 32.742 C 62.703 32.695 62.281 32.688 61.828 32.719 C 61.375 32.75 60.906 32.82 60.422 32.93 C 59.953 33.039 59.5 33.203 59.063 33.422 L 58.945 33.023 C 59.18 32.852 59.391 32.695 59.578 32.555 C 59.766 32.414 59.93 32.234 60.07 32.016 C 60.227 31.797 60.359 31.516 60.469 31.172 C 60.578 30.828 60.672 30.367 60.75 29.789 C 60.828 29.211 60.922 28.461 61.031 27.539 C 61.156 26.602 61.266 25.594 61.359 24.516 C 61.453 23.438 61.516 22.328 61.547 21.188 C 61.578 20.047 61.547 18.984 61.453 18 C 61.359 17.266 61.219 16.602 61.031 16.008 C 60.953 15.758 60.852 15.516 60.727 15.281 C 60.617 15.031 60.484 14.813 60.328 14.625 C 60.172 14.422 59.992 14.258 59.789 14.133 C 59.602 14.008 59.391 13.938 59.156 13.922 L 59.156 13.57 C 59.453 13.617 59.789 13.672 60.164 13.734 C 60.555 13.781 60.992 13.813 61.477 13.828 C 61.977 13.844 62.531 13.82 63.141 13.758 C 63.766 13.68 64.461 13.531 65.227 13.313 L 65.227 13.781 C 64.945 13.938 64.688 14.102 64.453 14.273 C 64.219 14.43 64 14.656 63.797 14.953 C 63.609 15.25 63.445 15.641 63.305 16.125 C 63.164 16.609 63.063 17.25 63 18.047 C 62.922 18.797 62.836 19.664 62.742 20.648 C 62.664 21.633 62.625 22.648 62.625 23.695 C 62.625 24.07 62.625 24.453 62.625 24.844 C 62.625 25.219 62.641 25.594 62.672 25.969 C 63.422 25.703 64.094 25.359 64.688 24.938 C 65.281 24.5 65.781 24.055 66.188 23.602 C 66.594 23.133 66.906 22.68 67.125 22.242 C 67.344 21.805 67.453 21.43 67.453 21.117 C 67.422 20.883 67.367 20.672 67.289 20.484 C 67.211 20.328 67.094 20.188 66.938 20.063 C 66.781 19.922 66.57 19.844 66.305 19.828 L 66.375 19.242 C 67.344 19.367 68.273 19.422 69.164 19.406 C 70.055 19.375 70.945 19.164 71.836 18.773 L 71.93 19.242 C 71.695 19.352 71.484 19.461 71.297 19.57 C 71.109 19.664 70.93 19.781 70.758 19.922 C 70.602 20.063 70.445 20.25 70.289 20.484 C 70.133 20.703 69.961 20.992 69.773 21.352 C 69.633 21.648 69.445 21.992 69.211 22.383 C 68.977 22.773 68.695 23.164 68.367 23.555 C 68.055 23.93 67.688 24.289 67.266 24.633 C 66.859 24.961 66.414 25.227 65.93 25.43 C 67.18 25.398 68.156 25.727 68.859 26.414 C 69.563 27.086 69.961 28.203 70.055 29.766 C 70.086 30.563 70.016 31.367 69.844 32.18 C 69.672 32.977 69.523 33.727 69.398 34.43 C 69.273 35.148 69.227 35.789 69.258 36.352 C 69.289 36.93 69.523 37.383 69.961 37.711 C 70.383 38.039 70.797 38.234 71.203 38.297 C 71.625 38.375 72.016 38.344 72.375 38.203 C 72.734 38.078 73.047 37.859 73.313 37.547 C 73.594 37.234 73.813 36.867 73.969 36.445 C 74.109 36.023 74.172 35.656 74.156 35.344 C 74.141 35.047 74.07 34.797 73.945 34.594 C 73.82 34.406 73.656 34.266 73.453 34.172 C 73.266 34.078 73.063 34.031 72.844 34.031 C 72.406 34.031 72.016 34.195 71.672 34.523 C 71.328 34.852 71.141 35.281 71.109 35.813 C 71.094 36 71.117 36.156 71.18 36.281 C 71.242 36.406 71.32 36.5 71.414 36.563 C 71.523 36.641 71.633 36.695 71.742 36.727 C 71.867 36.758 71.984 36.758 72.094 36.727 C 72.297 36.695 72.5 36.578 72.703 36.375 C 72.922 36.172 73.023 35.93 73.008 35.648 C 72.914 35.711 72.797 35.766 72.656 35.813 C 72.516 35.875 72.383 35.906 72.258 35.906 C 72.148 35.906 72.047 35.867 71.953 35.789 C 71.875 35.727 71.836 35.602 71.836 35.414 C 71.836 35.195 71.914 35.023 72.07 34.898 C 72.242 34.789 72.43 34.734 72.633 34.734 C 72.836 34.734 73.023 34.797 73.195 34.922 C 73.367 35.063 73.453 35.266 73.453 35.531 C 73.469 36.047 73.297 36.477 72.938 36.82 C 72.594 37.18 72.188 37.359 71.719 37.359 C 71.375 37.359 71.102 37.258 70.898 37.055 C 70.711 36.867 70.578 36.625 70.5 36.328 C 70.438 36.047 70.438 35.734 70.5 35.391 C 70.578 35.047 70.719 34.727 70.922 34.43 C 71.125 34.148 71.391 33.906 71.719 33.703 C 72.063 33.516 72.469 33.422 72.938 33.422 C 73.266 33.422 73.539 33.484 73.758 33.609 C 73.977 33.734 74.148 33.891 74.273 34.078 C 74.414 34.281 74.516 34.5 74.578 34.734 C 74.641 34.969 74.672 35.203 74.672 35.438 C 74.688 35.891 74.625 36.32 74.484 36.727 C 74.344 37.148 74.133 37.523 73.852 37.852 C 73.57 38.18 73.219 38.438 72.797 38.625 C 72.375 38.828 71.891 38.93 71.344 38.93 Z M 71.695 32.883 C 72.055 32.758 72.352 32.594 72.586 32.391 C 72.82 32.188 73 31.984 73.125 31.781 C 73.281 31.547 73.383 31.305 73.43 31.055 C 73.773 29.461 73.945 27.945 73.945 26.508 C 73.945 25.055 73.836 23.813 73.617 22.781 C 73.555 22.453 73.438 22.148 73.266 21.867 C 73.125 21.633 72.93 21.414 72.68 21.211 C 72.43 20.992 72.109 20.852 71.719 20.789 L 71.695 20.414 C 72.008 20.445 72.297 20.469 72.563 20.484 C 72.844 20.484 73.086 20.484 73.289 20.484 L 73.945 20.484 C 74.133 20.5 74.32 20.508 74.508 20.508 C 74.68 20.523 74.852 20.531 75.023 20.531 C 75.211 20.531 75.391 20.547 75.563 20.578 C 75.516 21.141 75.477 21.719 75.445 22.313 C 75.414 22.891 75.391 23.414 75.375 23.883 C 75.344 24.43 75.328 24.961 75.328 25.477 C 75.297 26.055 75.273 26.688 75.258 27.375 C 75.242 28.047 75.25 28.688 75.281 29.297 C 75.313 29.906 75.367 30.445 75.445 30.914 C 75.523 31.367 75.648 31.664 75.82 31.805 C 75.914 31.867 76.039 31.93 76.195 31.992 C 76.32 32.055 76.484 32.117 76.688 32.18 C 76.906 32.242 77.172 32.305 77.484 32.367 L 77.508 32.766 C 77.195 32.75 76.891 32.75 76.594 32.766 C 76.313 32.766 76.063 32.766 75.844 32.766 C 75.578 32.781 75.328 32.789 75.094 32.789 C 74.766 32.805 74.414 32.836 74.039 32.883 C 73.727 32.914 73.375 32.953 72.984 33 C 72.594 33.047 72.219 33.102 71.859 33.164 L 71.695 32.883 Z M 74.109 18.844 C 73.625 18.875 73.25 18.766 72.984 18.516 C 72.719 18.25 72.57 17.953 72.539 17.625 C 72.508 17.297 72.594 16.992 72.797 16.711 C 73.016 16.414 73.359 16.234 73.828 16.172 C 74.313 16.109 74.695 16.211 74.977 16.477 C 75.273 16.742 75.445 17.047 75.492 17.391 C 75.539 17.719 75.453 18.039 75.234 18.352 C 75.016 18.648 74.641 18.813 74.109 18.844 Z" style="fill: rgb(4, 0, 0);"/>
  <path d="M120.65 25.886L119.61 29.0067L118.57 32.9596C118.57 32.9596 115.865 34.416 115.657 33.3757C115.449 32.3355 116.697 32.1274 116.697 32.1274L117.113 30.047L113.993 24.4297L120.65 25.886Z" fill="#291507"/>
  <path d="M120.65 25.886L119.61 29.0067L118.57 32.9596C118.57 32.9596 115.865 34.416 115.657 33.3757C115.449 32.3355 116.697 32.1274 116.697 32.1274L117.113 30.047L113.993 24.4297L120.65 25.886Z" style="fill: rgb(0, 0, 0);"/>
  <path d="M102.966 24.6379L101.094 33.1679C101.094 33.1679 99.6373 34.0001 98.5971 33.584C97.5568 33.1679 99.2212 32.1276 99.2212 32.1276C99.2212 32.1276 98.5971 26.9265 95.4764 26.3023C92.3557 25.6782 102.966 24.6379 102.966 24.6379Z" fill="#291507"/>
  <path d="M102.966 24.6379L101.094 33.1679C101.094 33.1679 99.6373 34.0001 98.5971 33.584C97.5568 33.1679 99.2212 32.1276 99.2212 32.1276C99.2212 32.1276 98.5971 26.9265 95.4764 26.3023C92.3557 25.6782 102.966 24.6379 102.966 24.6379Z" style="fill: rgb(0, 0, 0);"/>
  <path d="M90.6913 14.6517C90.6913 14.6517 94.8522 16.108 98.5971 15.2758C98.5971 15.2758 105.879 14.2356 106.503 14.0275C107.127 13.8195 114.201 13.4034 117.945 14.0275C117.945 14.0275 128.348 5.91369 122.523 2.37689C122.523 2.37689 120.026 3.62517 119.402 2.79298C119.168 2.48091 119.285 2.08107 119.522 1.70317C119.791 1.29255 120.155 0.953492 120.584 0.715303C121.013 0.477114 121.494 0.346958 121.984 0.336097C124.158 0.254703 128.054 1.03591 126.286 8.14394C125.782 10.1045 124.853 11.9304 123.566 13.4926C122.618 14.6606 121.638 16.277 122.106 17.5643C122.939 19.8529 123.147 23.3897 123.147 23.3897L126.059 27.7586C126.059 27.7586 127.724 33.1679 127.724 33.3759C127.724 33.584 125.46 34.0253 125.019 33.584C124.603 33.1679 125.643 32.3357 125.643 32.3357C125.643 32.3357 124.811 30.6713 123.355 30.2552C121.898 29.8391 117.945 28.3828 117.321 27.7586C116.697 27.1345 103.382 23.3897 99.6373 26.9265C97.5358 28.9341 95.3124 30.8101 92.9798 32.5437C92.9798 32.5437 91.9396 34.0001 90.6913 34.0001C89.443 34.0001 89.235 32.1276 90.6913 31.9196C92.1476 31.7115 94.2281 26.7184 94.2281 26.7184C94.2281 26.7184 94.8522 22.9736 91.7315 22.3494C90.0112 22.0054 88.9863 21.9774 88.4129 22.0216C88.1839 22.0407 87.9534 22.0134 87.7352 21.9414C87.517 21.8695 87.3154 21.7543 87.1426 21.6029C86.7714 21.2459 86.4388 20.8507 86.1505 20.4239C86.0744 20.3155 86.0254 20.1905 86.0076 20.0593C85.9897 19.9281 86.0035 19.7945 86.0479 19.6697C86.325 18.9134 86.5556 18.1408 86.7384 17.3563C86.9464 16.3161 88.6108 15.4839 88.6108 15.4839C88.6108 15.4839 89.0269 12.5712 89.6511 13.4034C89.9709 13.8412 90.3183 14.2581 90.6913 14.6517Z" fill="#291507"/>
  <path d="M90.6913 14.6517C90.6913 14.6517 94.8522 16.108 98.5971 15.2758C98.5971 15.2758 105.879 14.2356 106.503 14.0275C107.127 13.8195 114.201 13.4034 117.945 14.0275C117.945 14.0275 128.348 5.91369 122.523 2.37689C122.523 2.37689 120.026 3.62517 119.402 2.79298C119.168 2.48091 119.285 2.08107 119.522 1.70317C119.791 1.29255 120.155 0.953492 120.584 0.715303C121.013 0.477114 121.494 0.346958 121.984 0.336097C124.158 0.254703 128.054 1.03591 126.286 8.14394C125.782 10.1045 124.853 11.9304 123.566 13.4926C122.618 14.6606 121.638 16.277 122.106 17.5643C122.939 19.8529 123.147 23.3897 123.147 23.3897L126.059 27.7586C126.059 27.7586 127.724 33.1679 127.724 33.3759C127.724 33.584 125.46 34.0253 125.019 33.584C124.603 33.1679 125.643 32.3357 125.643 32.3357C125.643 32.3357 124.811 30.6713 123.355 30.2552C121.898 29.8391 117.945 28.3828 117.321 27.7586C116.697 27.1345 103.382 23.3897 99.6373 26.9265C97.5358 28.9341 95.3124 30.8101 92.9798 32.5437C92.9798 32.5437 91.9396 34.0001 90.6913 34.0001C89.443 34.0001 89.235 32.1276 90.6913 31.9196C92.1476 31.7115 94.2281 26.7184 94.2281 26.7184C94.2281 26.7184 94.8522 22.9736 91.7315 22.3494C90.0112 22.0054 88.9863 21.9774 88.4129 22.0216C88.1839 22.0407 87.9534 22.0134 87.7352 21.9414C87.517 21.8695 87.3154 21.7543 87.1426 21.6029C86.7714 21.2459 86.4388 20.8507 86.1505 20.4239C86.0744 20.3155 86.0254 20.1905 86.0076 20.0593C85.9897 19.9281 86.0035 19.7945 86.0479 19.6697C86.325 18.9134 86.5556 18.1408 86.7384 17.3563C86.9464 16.3161 88.6108 15.4839 88.6108 15.4839C88.6108 15.4839 89.0269 12.5712 89.6511 13.4034C89.9709 13.8412 90.3183 14.2581 90.6913 14.6517Z" style="fill: rgb(0, 0, 0);"/>
</svg>